<svg id="Layer_1" data-name="Layer 1" xmlns="http://www.w3.org/2000/svg" viewBox="0 0 25 25"><defs><style>.cls-1{fill:#515151;}</style></defs><title>category2</title><path class="cls-1" d="M6.09,11.52H2.32A1.48,1.48,0,0,1,.72,9.93V2.31A1.49,1.49,0,0,1,2.3.72H10a1.49,1.49,0,0,1,1.57,1.57V10A1.47,1.47,0,0,1,10,11.52Zm0-1H9.86c.52,0,.68-.16.68-.66V2.38c0-.51-.16-.68-.67-.68H2.37c-.49,0-.67.17-.67.65V9.88c0,.49.17.66.66.66Z"/><path class="cls-1" d="M18.87,13.48h3.8a1.49,1.49,0,0,1,1.61,1.61v7.56a1.5,1.5,0,0,1-1.63,1.63H15.12a1.5,1.5,0,0,1-1.64-1.65V15.1a1.49,1.49,0,0,1,1.63-1.62Zm0,1H15.13c-.51,0-.67.16-.67.67v7.5c0,.5.16.67.67.67h7.5c.49,0,.67-.17.67-.66V15.11c0-.48-.17-.65-.66-.65Z"/><path class="cls-1" d="M13.48,6.09V2.33A1.49,1.49,0,0,1,15.07.72h7.62A1.49,1.49,0,0,1,24.28,2.3V10a1.49,1.49,0,0,1-1.57,1.57H15A1.47,1.47,0,0,1,13.48,10Zm1,0V9.86c0,.52.16.68.66.68h7.5c.51,0,.68-.16.68-.67V2.37c0-.49-.17-.67-.65-.67H15.12c-.49,0-.66.17-.66.66Z"/><path class="cls-1" d="M6.14,13.48H9.93a1.48,1.48,0,0,1,1.59,1.6v7.59A1.49,1.49,0,0,1,9.9,24.28H2.34A1.5,1.5,0,0,1,.72,22.64V15.11a1.5,1.5,0,0,1,1.65-1.63Zm4.4,5.4V15.09c0-.45-.17-.63-.62-.63H2.33c-.45,0-.63.18-.63.63v7.56c0,.47.18.65.64.65H9.9c.47,0,.64-.18.64-.65Z"/></svg>