<svg id="Layer_1" data-name="Layer 1" xmlns="http://www.w3.org/2000/svg" viewBox="0 0 25 25"><defs><style>.cls-1{fill:#1f8438;}</style></defs><title>category1</title><path class="cls-1" d="M5.77,11.53H1.87A1.55,1.55,0,0,1,.21,9.88V2A1.53,1.53,0,0,1,1.85.34q4,0,7.92,0A1.53,1.53,0,0,1,11.4,2v8a1.54,1.54,0,0,1-1.61,1.62Z"/><path class="cls-1" d="M5.81,10.51H9.68c.54,0,.71-.16.71-.69V2.05c0-.53-.17-.7-.7-.7H1.92c-.51,0-.69.18-.69.68q0,3.9,0,7.8c0,.51.17.68.68.68Z"/><path class="cls-1" d="M19,13.56H23a1.54,1.54,0,0,1,1.67,1.67v7.84a1.55,1.55,0,0,1-1.69,1.68h-7.8A1.56,1.56,0,0,1,13.43,23v-7.8a1.54,1.54,0,0,1,1.69-1.68Z"/><path class="cls-1" d="M19,14.57H15.15c-.53,0-.7.17-.7.69V23c0,.52.17.69.69.69h7.78c.51,0,.69-.17.69-.68v-7.8c0-.5-.18-.68-.69-.68Z"/><path class="cls-1" d="M13.43,5.9V2A1.54,1.54,0,0,1,15.08.34c2.63,0,5.27,0,7.9,0A1.53,1.53,0,0,1,24.62,2c0,2.64,0,5.29,0,7.93A1.54,1.54,0,0,1,23,11.53H15.05a1.54,1.54,0,0,1-1.62-1.61Z"/><path class="cls-1" d="M14.45,5.94V9.81c0,.53.16.7.68.7h7.78c.53,0,.7-.17.7-.69V2c0-.51-.18-.69-.68-.69h-7.8c-.51,0-.68.18-.68.68Z"/><path class="cls-1" d="M5.82,13.56H9.75a1.54,1.54,0,0,1,1.65,1.66v7.86a1.54,1.54,0,0,1-1.67,1.67H1.89A1.55,1.55,0,0,1,.21,23.06V15.25a1.55,1.55,0,0,1,1.71-1.69Z"/><path class="cls-1" d="M10.39,19.16V15.23c0-.48-.18-.66-.65-.66H1.87c-.46,0-.64.19-.64.66q0,3.91,0,7.83c0,.49.18.67.66.67H9.73c.48,0,.66-.18.66-.67Z"/></svg>