<svg id="Layer_1" data-name="Layer 1" xmlns="http://www.w3.org/2000/svg" viewBox="0 0 25 25"><defs><style>.cls-1{fill:#515151;}</style></defs><title>chat1</title><path class="cls-1" d="M12.52,1.88h9.31A2.39,2.39,0,0,1,24.4,4.46V16.68a2.39,2.39,0,0,1-2.58,2.57c-1.43,0-2.86,0-4.29,0a1.62,1.62,0,0,0-1.35.61c-.71.84-1.43,1.67-2.15,2.5a1.91,1.91,0,0,1-3,0c-.71-.83-1.43-1.65-2.13-2.49a1.65,1.65,0,0,0-1.37-.63c-1.46,0-2.91,0-4.37,0A2.38,2.38,0,0,1,.6,16.74V4.39A2.38,2.38,0,0,1,3.12,1.88Zm0,1H3.13A1.44,1.44,0,0,0,1.55,4.4V16.74A1.44,1.44,0,0,0,3.1,18.3H7.54a2.45,2.45,0,0,1,2,.9l2.12,2.46a1,1,0,0,0,1.75,0c.69-.8,1.39-1.6,2.07-2.41a2.53,2.53,0,0,1,2.06-.94h4.35a1.44,1.44,0,0,0,1.58-1.59V4.43a1.45,1.45,0,0,0-1.61-1.6Z"/><path class="cls-1" d="M13.45,11a1,1,0,1,1-.94-.95A1,1,0,0,1,13.45,11Z"/><path class="cls-1" d="M7.79,10.09a1,1,0,0,1,1,.94,1,1,0,1,1-1-.94Z"/><path class="cls-1" d="M18.15,11a1,1,0,1,1-1.9,0,1,1,0,0,1,1.9,0Z"/></svg>