<svg id="Layer_1" data-name="Layer 1" xmlns="http://www.w3.org/2000/svg" viewBox="0 0 25 25"><defs><style>.cls-1{fill:#1f8438;}</style></defs><title>home2</title><path class="cls-1" d="M23.79,11.94a.72.72,0,0,1-.66.47H21.66V23.31c0,.11,0,.22,0,.32a.77.77,0,0,1-.78.74H15.28a.8.8,0,0,1-.79-.87V17.22h-4v6.19c0,.68-.29,1-1,1H4.31c-.68,0-1-.29-1-1v-11H1.89a.74.74,0,0,1-.68-.47.75.75,0,0,1,.13-.84L1.49,11,11.8,1a3.68,3.68,0,0,1,.51-.37h.38a6.22,6.22,0,0,1,.58.43L23.5,10.93c.06.07.13.13.19.21A.73.73,0,0,1,23.79,11.94Z"/></svg>