<svg id="Layer_1" data-name="Layer 1" xmlns="http://www.w3.org/2000/svg" viewBox="0 0 25 25"><defs><style>.cls-1{fill:#515151;}</style></defs><title>home1</title><path class="cls-1" d="M23.82,11.12a1.19,1.19,0,0,0-.19-.2q-5.18-5-10.35-10a6.55,6.55,0,0,0-.59-.45h-.38a5,5,0,0,0-.52.38L1.36,10.93l-.15.15a.77.77,0,0,0-.14.85.75.75,0,0,0,.7.48H3.23v11.1c0,.69.3,1,1,1H9.49c.7,0,1-.3,1-1V17.28h4v6.35a.79.79,0,0,0,.8.88H21a.77.77,0,0,0,.79-.74c0-.11,0-.22,0-.33v-11h1.49a.73.73,0,0,0,.67-.48A.75.75,0,0,0,23.82,11.12Zm-.85.49H21.82a.8.8,0,0,0-.85.81,2.26,2.26,0,0,0,0,.26v11H15.32V17.41a.84.84,0,0,0-1-1H10.65c-.67,0-1,.3-1,1V23.7H4.05c0-.1,0-.19,0-.29Q4,18,4,12.61A1.31,1.31,0,0,0,3.89,12a.75.75,0,0,0-.73-.38H1.81L12.5,1.29l10.67,10.3Z"/></svg>