<svg id="Layer_1" data-name="Layer 1" xmlns="http://www.w3.org/2000/svg" viewBox="0 0 25 25"><defs><style>.cls-1{fill:#515151;}</style></defs><title>profile1</title><path class="cls-1" d="M3.15,21.54a2.79,2.79,0,0,1-1.07-.2,2.27,2.27,0,0,1-.86-.69,2.18,2.18,0,0,1-.46-1.39c0-4.42,0-9,0-13.51A2.32,2.32,0,0,1,1.4,4.12,2.28,2.28,0,0,1,3,3.47h7.43a.65.65,0,0,1,.54.27l.61.73c.34.4.68.8,1,1.21a.26.26,0,0,0,.25.11h9a2.19,2.19,0,0,1,2,.94,2.82,2.82,0,0,1,.32.71c0,.1.07.21.11.3l0,0V19.54a2.48,2.48,0,0,1-.49,1.16,2.26,2.26,0,0,1-1.6.83h-19ZM6,4.39H3.06A1.3,1.3,0,0,0,1.69,5.77c0,5.17,0,9.45,0,13.46a1.62,1.62,0,0,0,.13.64,1.31,1.31,0,0,0,1.31.74H21.87a1.31,1.31,0,0,0,1.44-1.44v-11a2,2,0,0,0,0-.43,1.33,1.33,0,0,0-1.37-1H12.67a.79.79,0,0,1-.64-.3c-.52-.63-1.06-1.27-1.64-1.95a.24.24,0,0,0-.13-.07Z"/></svg>