<svg id="Layer_1" data-name="Layer 1" xmlns="http://www.w3.org/2000/svg" viewBox="0 0 25 25"><defs><style>.cls-1{fill:#1f8438;}</style></defs><title>service2</title><path class="cls-1" d="M1.9,7.08s0,.06,0,.09a.76.76,0,0,0,0,.15v10.5a1.5,1.5,0,0,0,.87,1.38c2.83,1.57,5.86,3.24,8.89,4.94a1.75,1.75,0,0,0,.86.24h0a1.75,1.75,0,0,0,.87-.25C16,22.68,19,21,22.16,19.25a1.7,1.7,0,0,0,1-1.65c0-2.29,0-4.62,0-6.87V6.84l-.21.1L22.79,7l-.13.06L20.57,8.22l-7.28,4a.65.65,0,0,0-.35.67v7c0,.63,0,1.29,0,1.93a.42.42,0,0,1-.43.47h0a.43.43,0,0,1-.43-.46,2.81,2.81,0,0,1,0-.29V19.74c0-2.23,0-4.53,0-6.8a.72.72,0,0,0-.41-.71L4.83,8.45,2.45,7.13,2.23,7,2.11,7l-.19-.08ZM12.51.62a1.67,1.67,0,0,0-.82.24L9.49,2.09l-.78.43L4.42,4.9,2.39,6l.19.13.09.06a.34.34,0,0,0,.11.07L4,7l8.21,4.55a.65.65,0,0,0,.29.07.88.88,0,0,0,.37-.09c2.78-1.53,5.61-3.1,8.33-4.62l.91-.5.2-.13.12-.08.2-.13-.21-.12L20.12,4.65C17.85,3.38,15.49,2.08,13.18.8A1.35,1.35,0,0,0,12.51.62Z"/></svg>