<svg id="Layer_1" data-name="Layer 1" xmlns="http://www.w3.org/2000/svg" viewBox="0 0 25 25"><defs><style>.cls-1{fill:#515151;}</style></defs><title>service1</title><path class="cls-1" d="M12.51,24.52a2.6,2.6,0,0,1-1.24-.35L2.93,19.53a2.44,2.44,0,0,1-1-.89,2.44,2.44,0,0,1-.31-1.27c0-1.15,0-2.31,0-3.44V11c0-1.1,0-2.25,0-3.37A2.42,2.42,0,0,1,2,6.35a2.53,2.53,0,0,1,1-.92C5.48,4.06,8.11,2.6,11.27.83A2.46,2.46,0,0,1,12.5.48a2.43,2.43,0,0,1,1.23.35l8.34,4.63a2.44,2.44,0,0,1,1,.89,2.48,2.48,0,0,1,.31,1.28c0,3.24,0,6.51,0,9.73A2.48,2.48,0,0,1,23,18.64a2.38,2.38,0,0,1-1,.89L13.7,24.18A2.35,2.35,0,0,1,12.51,24.52ZM2.52,7.39s0,.05,0,.08,0,.09,0,.14V17.5a1.43,1.43,0,0,0,.82,1.3c2.67,1.47,5.52,3.05,8.37,4.65a1.69,1.69,0,0,0,.81.23h0a1.7,1.7,0,0,0,.83-.24c2.43-1.36,5.32-3,8.27-4.59a1.63,1.63,0,0,0,.91-1.56c0-2.16,0-4.35,0-6.47V7.16l-.2.1-.1,0-.12.06-2,1.09-6.86,3.8a.6.6,0,0,0-.33.63v6.63c0,.59,0,1.21,0,1.81a.39.39,0,0,1-.4.44h0a.4.4,0,0,1-.41-.43,2.44,2.44,0,0,1,0-.27V19.31c0-2.1,0-4.27,0-6.4a.69.69,0,0,0-.38-.68L5.28,8.68,3,7.43l-.21-.1-.11-.06-.18-.08Zm10-6.09a1.59,1.59,0,0,0-.77.22L9.67,2.68l-.74.41-4,2.24L3,6.39l.19.13.08.06a.27.27,0,0,0,.1.06l1.13.63C7,8.68,9.63,10.14,12.21,11.56a.58.58,0,0,0,.27.06.75.75,0,0,0,.35-.08l7.85-4.35.86-.48.19-.12.11-.07L22,6.39l-.2-.11L19.69,5.09,13.15,1.47A1.33,1.33,0,0,0,12.51,1.3Z"/></svg>